<?xml version="1.0" encoding="utf-8"?>
<!-- Generator: Adobe Illustrator 18.1.0, SVG Export Plug-In . SVG Version: 6.00 Build 0)  -->
<!DOCTYPE svg PUBLIC "-//W3C//DTD SVG 1.1//EN" "http://www.w3.org/Graphics/SVG/1.1/DTD/svg11.dtd">
<svg version="1.1" id="Layer_1" xmlns="http://www.w3.org/2000/svg" xmlns:xlink="http://www.w3.org/1999/xlink" x="0px" y="0px"
	 viewBox="0 0 400 400" enable-background="new 0 0 400 400" xml:space="preserve">
<polygon fill="#B56988" points="218.2,270.6 218.4,286.6 193,274.2 "/>
<polygon fill="#A04A72" points="218.2,270.6 218.4,286.6 237.8,284.3 "/>
<g>
	<polygon fill="#926C7F" points="157.8,108.7 133.7,132.2 185.1,136.4 	"/>
	<polygon fill="#B48BA0" points="185.1,136.4 193.7,119 157.8,108.7 	"/>
	<polygon fill="#C08D9B" points="185.1,136.4 153.3,164.8 133.7,132.2 	"/>
	<polygon fill="#C1788E" points="133.7,132.2 117.1,170.5 153.3,164.8 	"/>
	<polygon fill="#C66A8A" points="153.3,164.8 117.1,170.5 121.5,189.3 	"/>
	<polygon fill="#E97E97" points="153.3,164.8 121.5,189.3 143.4,232.1 159,190.3 	"/>
	<polygon fill="#F393AF" points="159,190.3 175,239 143.4,232.1 	"/>
	<polygon fill="#E483A2" points="143.4,232.1 164.3,253.7 175,239 	"/>
	<polygon fill="#CB809B" points="175,239 193,274.2 164.3,253.7 	"/>
	<polygon fill="#E084A0" points="175,239 218.2,270.6 193,274.2 	"/>
	<polygon fill="#D2697B" points="218.2,270.6 254.8,234.3 252,268.3 237.8,284.3 	"/>
	<polygon fill="#9B3B4A" points="254.8,234.3 264,225 252.2,267.8 	"/>
	<polygon fill="#CE7280" points="254.8,234.3 263.8,218.7 248.8,219.9 	"/>
	<polygon fill="#E4838D" points="263.8,218.7 267.1,213.1 264,225 254.8,234.3 	"/>
	<polygon fill="#C6536D" points="248.8,219.9 272.7,192.3 266,217.9 263.8,218.7 	"/>
	<polygon fill="#F288A4" points="258.1,158.9 262.1,153.4 272.7,192.3 	"/>
	<polygon fill="#DA7491" points="258.1,158.9 248.8,219.9 272.7,192.3 	"/>
	<polygon fill="#C6668B" points="258.3,158.1 216.3,150.4 248.8,219.9 	"/>
	<polygon fill="#F390A1" points="216.3,150.4 159,190.3 249.2,219.7 	"/>
	<polygon fill="#DC8397" points="159,190.3 175,239 249.2,219.7 	"/>
	<polyline fill="#E4838D" points="175,239 249.2,219.7 218.6,271.2 175,240.2 	"/>
	<polyline fill="#E27D86" points="248.8,219.9 254.8,234.3 218.2,270.6 248,220.3 	"/>
	<polygon fill="#E77080" points="153.3,164.8 216.3,150.4 159,190.3 	"/>
	<polygon fill="#DD6279" points="153.3,164.8 185.1,136.4 217,150.4 	"/>
	<polygon fill="#9B3B4A" points="216.3,150.4 254.4,139.1 262.1,153.4 258.1,158.9 	"/>
	<polygon fill="#AF4A65" points="157.8,108.7 188,83.3 193.7,119 	"/>
	<polygon fill="#893753" points="188,83.3 173.4,75.4 157.8,108.7 	"/>
	<polygon fill="#E45779" points="188,83.3 223.4,90.8 193.7,119.7 	"/>
	<polygon fill="#843C5A" points="223.4,90.8 227.1,97.5 193.1,119.8 	"/>
	<polygon fill="#E9708D" points="223.4,90.8 198.5,71.8 188,83.3 	"/>
	<polygon fill="#A8436C" points="198.5,71.8 223.4,90.8 240.3,76.2 	"/>
	<polygon fill="#DD6279" points="240.3,76.2 245.3,78.9 223.4,90.8 	"/>
	<polygon fill="#AF4A65" points="198.5,71.8 208.4,67.7 221.2,74.3 	"/>
	<polygon fill="#8C2847" points="208.4,67.7 222.4,58.4 221.2,74.3 	"/>
	<polygon fill="#E97E97" points="208.4,67.7 212.9,51.5 198.5,71.8 	"/>
	<polygon fill="#DD6279" points="212.9,51.5 222.4,58.4 208.4,67.7 	"/>
	<polygon fill="#8C2847" points="221.2,74.3 232.2,62.1 233.8,75.6 	"/>
	<polygon fill="#C08D9B" points="239,66.9 233.8,75.6 232.2,62.1 	"/>
	<polygon fill="#AF4A65" points="240.3,77 244,70.6 243.9,78.9 	"/>
	<polyline fill="#C08D9B" points="244,70.6 248,73.6 243.9,78.9 244,71.2 	"/>
	<polygon fill="#A8436C" points="245.3,78.9 227.1,97.5 223.4,90.8 	"/>
	<polygon fill="#926C7F" points="245.3,78.9 255,93.5 227.1,97.5 	"/>
	<polygon fill="#808AA8" points="255,93.5 261.9,98.5 254.8,86.2 	"/>
	<polygon fill="#A48394" points="254.8,86.2 245.3,78.9 255,94.5 	"/>
	<polyline fill="#808AA8" points="255,93.5 255,94.5 256.3,118.6 233.4,118.8 	"/>
	<polygon fill="#6E7A9E" points="227.1,97.5 233.4,118.8 255,93.5 	"/>
	<polygon fill="#496198" points="227.1,97.5 193.7,119 233.8,119.2 	"/>
	<polygon fill="#646D95" points="233.4,118.8 216.3,150.4 193.7,119 	"/>
	<polygon fill="#4E5680" points="193.7,119 185.1,136.4 216.3,150.4 	"/>
	<polygon fill="#4E5680" points="233.4,118.8 257.1,118.4 216.3,150.4 	"/>
	<polyline fill="#6E7A9E" points="255,93.5 261.9,98.5 256.3,118.6 255,94.5 	"/>
	<polygon fill="#616A95" points="241.2,130.6 254.4,139.1 257.1,118.4 	"/>
	<polygon fill="#404568" points="254.4,139.1 216.3,150.4 241.2,130.6 	"/>
	<polyline fill="#505778" points="257.1,118.4 263.4,130.1 254.4,139.1 256.3,118.6 	"/>
</g>
<g>
	<g opacity="0.3">
		<circle fill="#A494C5" cx="348.1" cy="105.9" r="1.5"/>
	</g>
	<g opacity="0.3">
		<circle fill="#A494C5" cx="62.3" cy="103.7" r="1.5"/>
	</g>
	<g>
		<g opacity="0.1">
			<polygon fill="#A494C5" points="348.1,105.9 137.7,168.2 107.7,270.2 			"/>
		</g>
		<g opacity="0.1">
			<polygon fill="#A494C5" points="162,55.9 60.7,103.2 207.2,140.6 			"/>
		</g>
		<g opacity="0.1">
			<path fill="#A494C5" d="M294.8,298.4l-0.3-0.5L241,198.5l0.3-0.1l86.6-21.4l0.1,0.4l19.9-71.6l0.5,0.1L294.8,298.4z M241.7,198.9
				l52.9,98.2l33.3-119.6L241.7,198.9z"/>
		</g>
		<g opacity="0.1">
			<polygon fill="#A494C5" points="274.5,61.6 167.3,306.3 337.5,238.7 			"/>
		</g>
		<g opacity="0.1">
			<path fill="#A494C5" d="M295.6,298.8l-1.3-1.1l0,0.3l-186.7-27.6l0-0.2l-24.5-92.5L61.2,104l0.6,0.5l232.1,192.3L161.5,55.5
				l0.6,0.2l186.1,50l-0.1,0.5L162.5,56.2L295.6,298.8z M107.9,269.9L294,297.5L62.1,105.4l21.3,72.2L107.9,269.9z"/>
		</g>
		<g opacity="0.3">
			<circle fill="#A494C5" cx="294.7" cy="297.8" r="1.5"/>
		</g>
		<g opacity="0.3">
			<circle fill="#A494C5" cx="107.7" cy="270.2" r="1.5"/>
		</g>
		<g opacity="0.3">
			<circle fill="#A494C5" cx="162" cy="55.9" r="1.5"/>
		</g>
	</g>
</g>
</svg>
